<?xml version="1.0" encoding="utf-8"?>
<!-- Generator: Adobe Illustrator 22.1.0, SVG Export Plug-In . SVG Version: 6.00 Build 0)  -->
<svg version="1.1" id="Layer_1" xmlns="http://www.w3.org/2000/svg" xmlns:xlink="http://www.w3.org/1999/xlink" x="0px" y="0px"
	 viewBox="0 0 54.8 48.6" style="enable-background:new 0 0 54.8 48.6;" xml:space="preserve">
<rect x="7.2" y="19.2" transform="matrix(1 -1.800828e-03 1.800828e-03 1 -3.704932e-02 3.333385e-02)" width="22.5" height="2.7"/>
<rect x="7.2" y="25.9" transform="matrix(1 -2.213575e-03 2.213575e-03 1 -6.019678e-02 3.634864e-02)" width="18.3" height="2.7"/>
<rect x="7.2" y="32.6" transform="matrix(1 -1.834768e-03 1.834768e-03 1 -6.205052e-02 3.127671e-02)" width="19.6" height="2.4"/>
<rect x="7.2" y="39.1" transform="matrix(1 -1.512500e-03 1.512500e-03 1 -6.116802e-02 3.126397e-02)" width="26.8" height="2.7"/>
<polygon points="48,18.8 35.5,32.8 30.6,28.5 28.8,30.5 35.8,36.7 48,22.9 "/>
<g>
	<path d="M16.1,9.1h0.1c0.8,0,1.5-0.7,1.5-1.5c0-0.8-0.7-1.5-1.5-1.5h-0.1c-0.8,0-1.5,0.7-1.5,1.5C14.6,8.4,15.2,9.1,16.1,9.1z"/>
	<path d="M9.2,9.1h0.1c0.8,0,1.5-0.7,1.5-1.5c0-0.8-0.7-1.5-1.5-1.5H9.2c-0.8,0-1.5,0.7-1.5,1.5C7.7,8.4,8.3,9.1,9.2,9.1z"/>
	<path d="M23,9.1h0.1c0.8,0,1.5-0.7,1.5-1.5c0-0.8-0.7-1.5-1.5-1.5H23c-0.8,0-1.5,0.7-1.5,1.5C21.5,8.4,22.1,9.1,23,9.1z"/>
	<path d="M0,47.1c0,0.8,0.7,1.5,1.5,1.5H50c2.7,0,4.8-2.2,4.8-4.8V13.7v0V0H0v13.7c0,0,0,0,0,0L0,47.1L0,47.1z M50,45.6H3V15.2h48.7
		v28.6C51.7,44.8,51,45.6,50,45.6z M51.7,3v9.1H3V3H51.7z"/>
</g>
</svg>
