<svg xmlns="http://www.w3.org/2000/svg" xmlns:xlink="http://www.w3.org/1999/xlink" version="1.1" x="0px" y="0px" viewBox="0 0 91 113.75" enable-background="new 0 0 91 91" xml:space="preserve"><g><path d="M88.159,61.896l-8.316-3.049l-13.98-13.049c-0.4-0.373-0.928-0.58-1.475-0.58H35.643c-0.469,0-0.924,0.152-1.297,0.434   L17.172,58.563l-8.133,0.002c-2.707,0.068-7.828,2.109-7.828,9.344c0,6.85,4.557,9.316,7.211,9.732   c0.82,4.367,4.654,7.682,9.252,7.682c4.452,0,8.184-3.104,9.165-7.26h37.42c0.98,4.156,4.711,7.26,9.16,7.26   c4.58,0,8.402-3.287,9.242-7.625h4.756c1.193,0,2.16-0.967,2.16-2.16V63.925C89.577,63.019,89.01,62.208,88.159,61.896z    M17.674,81.003c-2.811,0-5.098-2.287-5.098-5.1s2.287-5.1,5.098-5.1c2.814,0,5.104,2.287,5.104,5.1S20.488,81.003,17.674,81.003z    M73.418,81.003c-2.813,0-5.1-2.287-5.1-5.1s2.287-5.1,5.1-5.1s5.1,2.287,5.1,5.1S76.231,81.003,73.418,81.003z M85.256,73.378   h-2.773c-1.107-3.969-4.746-6.895-9.064-6.895c-4.449,0-8.18,3.105-9.16,7.26h-37.42c-0.98-4.154-4.713-7.26-9.165-7.26   c-4.275,0-7.889,2.867-9.035,6.779c-1.084-0.342-3.107-1.492-3.107-5.354c0-4.482,2.791-4.98,3.563-5.025h8.799   c0.469,0,0.924-0.152,1.299-0.434l17.174-12.912h27.17l13.678,12.766c0.211,0.197,0.459,0.35,0.73,0.449l7.313,2.68V73.378z"/><path d="M48.747,41.024c9.973,0,18.086-8.113,18.086-18.084c0-9.973-8.113-18.086-18.086-18.086   c-9.971,0-18.082,8.113-18.082,18.086C30.665,32.911,38.776,41.024,48.747,41.024z M48.747,9.175   c7.59,0,13.766,6.176,13.766,13.766s-6.176,13.764-13.766,13.764c-7.588,0-13.762-6.174-13.762-13.764S41.159,9.175,48.747,9.175z"/><path d="M46.793,33.276v1.898h4.32v-1.957c2.541-0.463,4.471-2.609,4.471-5.188v-2.129c0-2.086-1.27-3.775-3.395-4.516   c-0.117-0.041-0.238-0.072-0.361-0.094l-5.43-0.891c-0.07-0.018-0.119-0.037-0.154-0.051c-0.008-0.053-0.016-0.139-0.016-0.27   v-2.119c0-0.521,0.539-0.963,1.178-0.963h2.684c0.639,0,1.178,0.441,1.178,0.963v0.986h4.32v-0.986   c0-2.576-1.932-4.725-4.475-5.188v-1.889h-4.32v1.828c-2.744,0.295-4.885,2.535-4.885,5.248v2.119c0,3.219,2.227,4.227,3.555,4.539   c0.049,0.012,0.098,0.021,0.148,0.031l5.305,0.869c0.348,0.148,0.348,0.277,0.348,0.381v2.129c0,0.521-0.535,0.961-1.17,0.961   h-2.682c-0.643,0-1.184-0.439-1.184-0.961v-0.996h-4.32v0.996C41.909,30.741,44.049,32.979,46.793,33.276z"/></g></svg>