<svg version="1.1" id="Layer_1" xmlns="http://www.w3.org/2000/svg" xmlns:xlink="http://www.w3.org/1999/xlink" x="0px" y="0px"
	 viewBox="0 0 24 30" style="enable-background:new 0 0 24 30;" xml:space="preserve">
<path fill="#FFFFFF" d="M7.4,14.1h1.4v6.8c0,0.8,0.6,1.4,1.4,1.4h2.7c0.8,0,1.4-0.6,1.4-1.4c0,0,0,0,0,0v-6.8h1.4c0.6-0.1,1.1-0.4,1.3-1l0.9-1.8
	c0,0,0-0.1,0-0.1c0.1-0.4,0-0.8-0.2-1.2c-0.3-0.3-0.7-0.5-1.1-0.5h-2.3V6.8h2.3c0.8,0,1.4-0.6,1.4-1.4V3.2c0-0.8-0.6-1.4-1.4-1.4
	h-2.8c-3.4,0-5,2.1-5,6.4v1.3H7.4C6.6,9.4,6,10.1,6,10.9v1.8C6,13.5,6.6,14.1,7.4,14.1z M7,10.9c0-0.2,0.2-0.4,0.4-0.4h1.9
	c0.3,0,0.5-0.2,0.5-0.5V8.1c0-3.8,1.2-5.4,4-5.4h2.8c0.2,0,0.4,0.2,0.4,0.4v2.3c0,0.2-0.2,0.4-0.4,0.4h-2.7c-0.3,0-0.5,0.2-0.5,0.5
	V10c0,0.3,0.2,0.5,0.5,0.5h2.8c0.1,0,0.3,0.1,0.3,0.2C17,10.7,17,10.9,17,11l-0.9,1.7c-0.2,0.3-0.4,0.4-0.5,0.4h-1.8
	c-0.3,0-0.5,0.2-0.5,0.5v7.3c0,0.2-0.2,0.4-0.4,0.4c0,0,0,0,0,0h-2.7c-0.2,0-0.4-0.2-0.4-0.4v-7.3c0-0.3-0.2-0.5-0.5-0.5H7.4
	c-0.2,0-0.4-0.2-0.4-0.4V10.9z"/>
</svg>
