<?xml version="1.0" encoding="utf-8"?>
<!-- Generator: Adobe Illustrator 22.1.0, SVG Export Plug-In . SVG Version: 6.00 Build 0)  -->
<svg version="1.1" id="Layer_1" xmlns="http://www.w3.org/2000/svg" xmlns:xlink="http://www.w3.org/1999/xlink" x="0px" y="0px"
	 viewBox="0 0 24.6 42.1" style="enable-background:new 0 0 24.6 42.1;" xml:space="preserve">
<style type="text/css">
	.st0{fill:none;stroke:#000000;stroke-width:2;stroke-linecap:round;stroke-miterlimit:10;}
	.st1{fill:none;stroke:#000000;stroke-linecap:round;stroke-miterlimit:10;}
	.st2{fill:none;stroke:#000000;stroke-width:2;stroke-miterlimit:10;}
</style>
<g>
	<path d="M2.9,25.3h2.8v13.9c0,1.6,1.3,2.9,2.9,2.9h5.5c1.6,0,2.9-1.3,2.9-2.9l0,0V25.3h2.8c1.2-0.1,2.3-0.9,2.8-2.1l1.9-3.7
		c0-0.1,0-0.1,0-0.2c0.2-0.8,0.1-1.7-0.4-2.4c-0.6-0.7-1.4-1.1-2.3-1.1H17v-5.4h4.7c1.6,0,2.9-1.3,2.9-2.9V2.9
		c0-1.6-1.3-2.9-2.9-2.9H16C9.1,0,5.7,4.3,5.7,13.1v2.7H2.9c-1.6,0-2.9,1.3-2.9,2.9v3.7C0,24,1.3,25.3,2.9,25.3z M2.1,18.7
		c0-0.5,0.4-0.8,0.9-0.8h3.8c0.6,0,1-0.5,1-1v-3.7c0-7.8,2.5-11.1,8.2-11.1h5.7c0.5,0,0.9,0.4,0.9,0.8v4.6c0,0.5-0.4,0.8-0.9,0.8H16
		c-0.6,0-1,0.5-1,1v7.5c0,0.6,0.5,1,1,1h5.7c0.3,0,0.5,0.1,0.7,0.3c0.1,0.2,0.2,0.4,0.2,0.6l-1.8,3.6c-0.3,0.6-0.8,0.9-0.9,0.9H16
		c-0.6,0-1,0.5-1,1v14.9c0,0.5-0.4,0.9-0.9,0.8l0,0H8.6c-0.5,0-0.9-0.4-0.9-0.8v-15c0-0.6-0.5-1-1-1H2.9c-0.5,0-0.9-0.4-0.9-0.8
		V18.7z"/>
	<g>
		<circle class="st0" cx="128.5" cy="20.7" r="9.6"/>
		<circle class="st1" cx="141.8" cy="10.8" r="1.9"/>
		<path class="st0" d="M117.4,0h22.2c5.3,0,9.6,4.3,9.6,9.6v22.2c0,5.3-4.3,9.6-9.6,9.6h-22.2c-5.3,0-9.6-4.3-9.6-9.6V9.6
			C107.8,4.3,112.1,0,117.4,0z"/>
	</g>
	<g>
		<path d="M246.7,7.1c-0.1,0-0.1,0-0.2,0c-2.2,0.7-3.8,1.9-4.7,3.5c-0.9,1.6-1,3.5-0.6,5.3c0.7,3.8,3.4,7.9,6.7,11.3
			c3.3,3.4,7.3,6.1,11.1,6.9c1.9,0.4,3.8,0.3,5.4-0.6c1.6-0.9,2.9-2.5,3.8-4.7c0.2-0.4,0-0.9-0.4-1.2l-7.2-4.5l0,0
			c0,0-0.1,0-0.1-0.1c-0.1-0.1-0.2-0.1-0.3-0.1c0,0,0,0,0,0c0,0-0.1,0-0.1,0c0,0,0,0,0,0c-0.2,0-0.3,0-0.5,0.1
			c-0.1,0-0.1,0.1-0.2,0.1c0,0-0.1,0-0.1,0.1c0,0,0,0,0,0c0,0-0.1,0.1-0.1,0.1l-1.6,1.6c-2.9-1.4-5.1-3.9-7-7.1l1.5-1.4
			c0,0,0.1-0.1,0.1-0.1c0,0,0,0,0.1-0.1v0c0,0,0,0,0.1-0.1v0c0,0,0,0,0,0c0,0,0,0,0,0c0,0,0-0.1,0-0.1v0c0,0,0,0,0,0c0,0,0,0,0-0.1
			c0,0,0-0.1,0-0.1v0c0,0,0-0.1,0-0.1l0,0c0,0,0-0.1,0-0.1l0,0c0,0,0-0.1,0-0.1l0,0c0,0,0-0.1,0-0.1v0c0-0.1,0-0.1-0.1-0.2v0
			c0,0,0-0.1-0.1-0.1l0,0c0,0,0,0,0,0l-4.5-7.4C247.4,7.3,247.1,7.1,246.7,7.1C246.7,7.1,246.7,7.1,246.7,7.1L246.7,7.1z M246.3,9.3
			l3.7,6.1l-1.5,1.5c-0.3,0.3-0.4,0.8-0.2,1.2c2.3,4,5.1,7.2,9,8.9c0.4,0.2,0.8,0.1,1.1-0.2l1.6-1.6l5.9,3.7
			c-0.7,1.5-1.5,2.4-2.5,2.9c-1.1,0.6-2.5,0.7-4.1,0.4c-3.2-0.7-7-3.1-10.1-6.3c-3.1-3.2-5.5-7.1-6.1-10.2c-0.3-1.6-0.2-2.9,0.4-4
			C244,10.7,244.9,9.9,246.3,9.3L246.3,9.3z"/>
		<path d="M254.6-1.5c-12.3,0-22.2,10-22.2,22.2c0,4.5,1.3,8.6,3.6,12.2l-2.5,8.3c-0.2,0.5,0.1,1.1,0.7,1.3c0.2,0.1,0.4,0.1,0.6,0
			l8.1-2.8c3.4,2.1,7.4,3.3,11.6,3.3c12.3,0,22.2-10,22.2-22.2C276.8,8.4,266.8-1.5,254.6-1.5L254.6-1.5z M254.6,0.5
			c11.2,0,20.2,9,20.2,20.2c0,11.2-9,20.2-20.2,20.2c-4,0-7.8-1.2-11-3.2c-0.3-0.2-0.6-0.2-0.9-0.1l-6.7,2.3l2.1-6.9
			c0.1-0.3,0-0.6-0.1-0.9c-2.3-3.3-3.6-7.2-3.6-11.5C234.4,9.5,243.4,0.5,254.6,0.5L254.6,0.5z"/>
	</g>
	<g transform="translate(144 0)">
		<path class="st2" d="M271.5,8.5c0-4.6-3.7-8.3-8.3-8.3h-38.9c-4.6,0-8.3,3.7-8.3,8.3v22.3c0,4.6,3.7,8.3,8.3,8.3h38.9
			c4.6,0,8.3-3.7,8.3-8.3V8.5z M238.2,29V8.1L254,18.6L238.2,29z"/>
	</g>
</g>
</svg>
