<?xml version="1.0" encoding="utf-8"?>
<!-- Generator: Adobe Illustrator 22.1.0, SVG Export Plug-In . SVG Version: 6.00 Build 0)  -->
<svg version="1.1" id="Layer_1" xmlns="http://www.w3.org/2000/svg" xmlns:xlink="http://www.w3.org/1999/xlink" x="0px" y="0px"
	 viewBox="0 0 24.6 42.1" style="enable-background:new 0 0 24.6 42.1;" xml:space="preserve">
<g>
	<path fill="#f15f22" d="M2.9,25.3h2.8v13.9c0,1.6,1.3,2.9,2.9,2.9h5.5c1.6,0,2.9-1.3,2.9-2.9l0,0V25.3h2.8c1.2-0.1,2.3-0.9,2.8-2.1l1.9-3.7
		c0-0.1,0-0.1,0-0.2c0.2-0.8,0.1-1.7-0.4-2.4c-0.6-0.7-1.4-1.1-2.3-1.1H17v-5.4h4.7c1.6,0,2.9-1.3,2.9-2.9V2.9
		c0-1.6-1.3-2.9-2.9-2.9H16C9.1,0,5.7,4.3,5.7,13.1v2.7H2.9c-1.6,0-2.9,1.3-2.9,2.9v3.7C0,24,1.3,25.3,2.9,25.3z M2.1,18.7
		c0-0.5,0.4-0.8,0.9-0.8h3.8c0.6,0,1-0.5,1-1v-3.7c0-7.8,2.5-11.1,8.2-11.1h5.7c0.5,0,0.9,0.4,0.9,0.8v4.6c0,0.5-0.4,0.8-0.9,0.8H16
		c-0.6,0-1,0.5-1,1v7.5c0,0.6,0.5,1,1,1h5.7c0.3,0,0.5,0.1,0.7,0.3c0.1,0.2,0.2,0.4,0.2,0.6l-1.8,3.6c-0.3,0.6-0.8,0.9-0.9,0.9H16
		c-0.6,0-1,0.5-1,1v14.9c0,0.5-0.4,0.9-0.9,0.8l0,0H8.6c-0.5,0-0.9-0.4-0.9-0.8v-15c0-0.6-0.5-1-1-1H2.9c-0.5,0-0.9-0.4-0.9-0.8
		V18.7z"/>
</g>
</svg>
