<svg width="64" height="50" xmlns="http://www.w3.org/2000/svg">

 <g>
  <title>background</title>
  <rect fill="none" id="canvas_background" height="52" width="66" y="-1" x="-1"/>
 </g>
 <g>
  <title>Layer 1</title>
  <g id="svg_1">
   <path id="svg_2" d="m61.492,25.116l2.039,-3.151l-31.403,-20.312l-11.275,7.295l0,-6.938l-10.867,0l0,13.969l-9.253,5.986l2.037,3.151l7.216,-4.668l0,24.483l-8.235,0l0,3.75l8.235,0l14.28,0l15.937,0l14.076,0l8.232,0l0,-3.75l-8.232,0l0,-24.483l7.213,4.668zm-47.756,-19.356l3.367,0l0,5.615l-3.367,2.178l0,-7.793zm14.281,39.171l0,-16.598l8.437,0l0,16.598l-8.437,0zm22.512,0l-10.326,0l0,-20.348l-15.937,0l0,20.348l-10.53,0l0,-26.911l18.392,-11.9l18.401,11.904l0,26.907z"/>
  </g>
 </g>
</svg>