<?xml version="1.0" encoding="utf-8"?>
<!-- Generator: Adobe Illustrator 22.1.0, SVG Export Plug-In . SVG Version: 6.00 Build 0)  -->
<svg version="1.1" id="Layer_1" xmlns="http://www.w3.org/2000/svg" xmlns:xlink="http://www.w3.org/1999/xlink" x="0px" y="0px"
	 viewBox="0 0 43.4 43.4" style="enable-background:new 0 0 43.4 43.4;" xml:space="preserve">
<style type="text/css">
	.st0{fill:none;stroke:#000000;stroke-width:2;stroke-linecap:round;stroke-miterlimit:10;}
	.st1{fill:none;stroke:#000000;stroke-linecap:round;stroke-miterlimit:10;}
	.st2{fill:none;stroke:#000000;stroke-width:2;stroke-miterlimit:10;}
</style>
<g>
	<path d="M-103.9,26.3h2.8v13.9c0,1.6,1.3,2.9,2.9,2.9h5.5c1.6,0,2.9-1.3,2.9-2.9v0V26.3h2.8c1.2-0.1,2.3-0.9,2.8-2.1l1.9-3.7
		c0-0.1,0-0.1,0-0.2c0.2-0.8,0.1-1.7-0.4-2.4c-0.6-0.7-1.4-1.1-2.3-1.1h-4.7v-5.4h4.7c1.6,0,2.9-1.3,2.9-2.9V3.9
		c0-1.6-1.3-2.9-2.9-2.9h-5.7C-97.7,1-101,5.3-101,14.1v2.7h-2.8c-1.6,0-2.9,1.3-2.9,2.9v3.7C-106.8,25-105.5,26.3-103.9,26.3z
		 M-104.7,19.7c0-0.5,0.4-0.8,0.9-0.8h3.8c0.6,0,1-0.5,1-1v-3.7c0-7.8,2.5-11.1,8.2-11.1h5.7c0.5,0,0.9,0.4,0.9,0.8v4.6
		c0,0.5-0.4,0.8-0.9,0.8h-5.6c-0.6,0-1,0.5-1,1v7.5c0,0.6,0.5,1,1,1h5.7c0.3,0,0.5,0.1,0.7,0.3c0.1,0.2,0.2,0.4,0.2,0.6l-1.8,3.6
		c-0.3,0.6-0.8,0.9-0.9,0.9h-3.8c-0.6,0-1,0.5-1,1v14.9c0,0.5-0.4,0.9-0.9,0.8l0,0h-5.5c-0.5,0-0.9-0.4-0.9-0.8v-15c0-0.6-0.5-1-1-1
		h-3.8c-0.5,0-0.9-0.4-0.9-0.8V19.7z"/>
	<g>
		<circle class="st0" cx="21.7" cy="21.7" r="9.6"/>
		<circle class="st1" cx="35" cy="11.8" r="1.9"/>
		<path class="st0" d="M10.6,1h22.2c5.3,0,9.6,4.3,9.6,9.6v22.2c0,5.3-4.3,9.6-9.6,9.6H10.6c-5.3,0-9.6-4.3-9.6-9.6V10.6
			C1,5.3,5.3,1,10.6,1z"/>
	</g>
	<g>
		<path d="M139.9,8.1c-0.1,0-0.1,0-0.2,0c-2.2,0.7-3.8,1.9-4.7,3.5c-0.9,1.6-1,3.5-0.6,5.3c0.7,3.8,3.4,7.9,6.7,11.3
			c3.3,3.4,7.3,6.1,11.1,6.9c1.9,0.4,3.8,0.3,5.4-0.6c1.6-0.9,2.9-2.5,3.8-4.7c0.2-0.4,0-0.9-0.4-1.2l-7.2-4.5l0,0
			c0,0-0.1,0-0.1-0.1c-0.1-0.1-0.2-0.1-0.3-0.1c0,0,0,0,0,0c0,0-0.1,0-0.1,0c0,0,0,0,0,0c-0.2,0-0.3,0-0.5,0.1
			c-0.1,0-0.1,0.1-0.2,0.1c0,0-0.1,0-0.1,0.1c0,0,0,0,0,0c0,0-0.1,0.1-0.1,0.1l-1.6,1.6c-2.9-1.4-5.1-3.9-7-7.1l1.5-1.4
			c0,0,0.1-0.1,0.1-0.1c0,0,0,0,0.1-0.1v0c0,0,0,0,0.1-0.1v0c0,0,0,0,0,0c0,0,0,0,0,0c0,0,0-0.1,0-0.1v0c0,0,0,0,0,0c0,0,0,0,0-0.1
			c0,0,0-0.1,0-0.1v0c0,0,0-0.1,0-0.1l0,0c0,0,0-0.1,0-0.1l0,0c0,0,0-0.1,0-0.1l0,0c0,0,0-0.1,0-0.1v0c0-0.1,0-0.1-0.1-0.2v0
			c0,0,0-0.1-0.1-0.1l0,0c0,0,0,0,0,0l-4.5-7.4C140.6,8.3,140.3,8.1,139.9,8.1C139.9,8.1,139.9,8.1,139.9,8.1L139.9,8.1z
			 M139.5,10.3l3.7,6.1l-1.5,1.5c-0.3,0.3-0.4,0.8-0.2,1.2c2.3,4,5.1,7.2,9,8.9c0.4,0.2,0.8,0.1,1.1-0.2l1.6-1.6l5.9,3.7
			c-0.7,1.5-1.5,2.4-2.5,2.9c-1.1,0.6-2.5,0.7-4.1,0.4c-3.2-0.7-7-3.1-10.1-6.3s-5.5-7.1-6.1-10.2c-0.3-1.6-0.2-2.9,0.4-4
			C137.2,11.7,138.1,10.9,139.5,10.3L139.5,10.3z"/>
		<path d="M147.8-0.5c-12.3,0-22.2,10-22.2,22.2c0,4.5,1.3,8.6,3.6,12.2l-2.5,8.3c-0.2,0.5,0.1,1.1,0.7,1.3c0.2,0.1,0.4,0.1,0.6,0
			l8.1-2.8c3.4,2.1,7.4,3.3,11.6,3.3c12.3,0,22.2-10,22.2-22.2C170,9.4,160-0.5,147.8-0.5L147.8-0.5z M147.8,1.5
			c11.2,0,20.2,9,20.2,20.2c0,11.2-9,20.2-20.2,20.2c-4,0-7.8-1.2-11-3.2c-0.3-0.2-0.6-0.2-0.9-0.1l-6.7,2.3l2.1-6.9
			c0.1-0.3,0-0.6-0.1-0.9c-2.3-3.3-3.6-7.2-3.6-11.5C127.6,10.5,136.6,1.5,147.8,1.5L147.8,1.5z"/>
	</g>
	<g transform="translate(144 0)">
		<path class="st2" d="M164.7,9.5c0-4.6-3.7-8.3-8.3-8.3h-38.9c-4.6,0-8.3,3.7-8.3,8.3v22.3c0,4.6,3.7,8.3,8.3,8.3h38.9
			c4.6,0,8.3-3.7,8.3-8.3V9.5z M131.4,30V9.1l15.9,10.5L131.4,30z"/>
	</g>
</g>
</svg>
