<svg version="1.1" id="Layer_1" xmlns="http://www.w3.org/2000/svg" xmlns:xlink="http://www.w3.org/1999/xlink" x="0px" y="0px"
	 viewBox="0 0 100 125" style="enable-background:new 0 0 100 125;" xml:space="preserve"><g><g><path fill="#FFFFFF" d="M50,72.2c-12.3,0-22.2-10-22.2-22.2s10-22.2,22.2-22.2s22.2,10,22.2,22.2S62.3,72.2,50,72.2z M50,31.8 C40,31.8,31.8,40,31.8,50S40,68.2,50,68.2S68.2,60,68.2,50S60,31.8,50,31.8z"/></g><g><path fill="#FFFFFF" d="M64.6,95H35.4C18.6,95,5,81.4,5,64.6V35.4C5,18.6,18.6,5,35.4,5h29.1C81.4,5,95,18.6,95,35.4v29.1 C95,81.4,81.4,95,64.6,95z M35.4,9.1C20.9,9.1,9.1,20.9,9.1,35.4v29.1c0,14.5,11.8,26.3,26.3,26.3h29.1 c14.5,0,26.3-11.8,26.3-26.3V35.4c0-14.5-11.8-26.3-26.3-26.3H35.4z"/></g><g><path fill="#FFFFFF" d="M74.3,33.3c-4.2,0-7.5-3.4-7.5-7.5s3.4-7.5,7.5-7.5s7.5,3.4,7.5,7.5S78.4,33.3,74.3,33.3z M74.3,22.3 c-1.9,0-3.5,1.5-3.5,3.5s1.5,3.5,3.5,3.5s3.5-1.5,3.5-3.5S76.2,22.3,74.3,22.3z"/></g></g></svg>
