<?xml version="1.0" encoding="utf-8"?>
<!-- Generator: Adobe Illustrator 22.1.0, SVG Export Plug-In . SVG Version: 6.00 Build 0)  -->
<svg version="1.1" id="Layer_1" xmlns="http://www.w3.org/2000/svg" xmlns:xlink="http://www.w3.org/1999/xlink" x="0px" y="0px"
	 viewBox="0 0 1192 135.6" style="enable-background:new 0 0 1192 135.6;" xml:space="preserve">
<style type="text/css">
	.st0{fill:#E15200;}
</style>
<path class="st0" d="M119.6,0H77C55.6,0,38.8,5.6,26.5,16.8C14.3,28,6.1,45.4,1.8,68.9C-0.4,81-0.6,91.5,1.2,100.2
	c1.8,8.7,5.7,15.8,11.5,21.2c4.5,4.2,9.6,7.2,15.2,9c5.6,1.8,13.7,2.7,24.1,2.7h44.6c1.6,0,3-1.2,3.3-2.7l3-16.5
	c0.4-2.1-1.2-3.9-3.3-3.9h-42c-12,0-19.9-3-23.7-9c-3.8-6-4.4-16.3-1.7-30.9c3-16.8,7.8-28.9,14.2-36.3c6.4-7.4,15.5-11,27-11h43.2
	c1.6,0,3-1.2,3.3-2.7l2.9-16C123.3,1.9,121.7,0,119.6,0"/>
<path class="st0" d="M203.4,74.1c-2.5,14-7,24.3-13.4,31c-6.4,6.7-15,10-25.8,10c-10.9,0-18.4-3.4-22.2-10.1
	c-3.9-6.8-4.5-17.4-1.8-32c2.4-13.4,6.9-23.5,13.3-30.1c6.5-6.6,15-9.9,25.7-9.9c10.8,0,18.2,3.3,22.2,10
	C205.2,49.8,206,60.1,203.4,74.1 M224.4,27.9c-7.8-10-21.7-15-41.6-15c-19.8,0-35.5,4.9-47,14.8c-11.5,9.9-19,25-22.7,45.3
	c-3.9,21.5-2.1,37.3,5.6,47.4c7.7,10.1,21.6,15.2,41.8,15.2c20,0,35.7-5,47.1-15.1c11.4-10,19-25.5,22.8-46.4
	C234.2,53.3,232.1,37.9,224.4,27.9"/>
<path class="st0" d="M590.8,74.1c-2.5,14-7,24.3-13.4,31c-6.4,6.7-15,10-25.8,10c-10.9,0-18.4-3.4-22.2-10.1
	c-3.9-6.8-4.5-17.4-1.8-32c2.4-13.4,6.9-23.5,13.3-30.1c6.5-6.6,15-9.9,25.7-9.9c10.8,0,18.1,3.3,22.2,10
	C592.6,49.8,593.4,60.1,590.8,74.1 M611.8,27.9c-7.8-10-21.6-15-41.6-15c-19.8,0-35.5,4.9-47,14.8c-11.5,9.9-19.1,25-22.8,45.3
	c-3.9,21.5-2,37.3,5.7,47.4c7.7,10.1,21.6,15.2,41.8,15.2c20,0,35.7-5,47.1-15.1c11.4-10,19-25.5,22.8-46.4
	C621.6,53.3,619.6,37.9,611.8,27.9"/>
<path class="st0" d="M497.9,15.2h-36.1c-11.2,0-20.7,1.1-28.6,3.3c-7.9,2.2-14.5,5.6-19.8,10.1c-5.2,4.4-9.3,10.2-12.4,17.2
	c-1.2,2.9-2.5,6.4-3.7,10.6l-2.1,8.1c-1,4.3-2,9.1-3,14.5l-9,49.6c-0.4,2.4,1.4,4.6,3.8,4.6h17c1.9,0,3.5-1.4,3.8-3.2l8-43.8
	c0.2-0.8,0.8-1.3,1.5-1.3h63.3c1.9,0,3.5-1.3,3.8-3.2l2.3-12.6c0.4-2.4-1.4-4.6-3.8-4.6l-61.7,0c-0.7,0-1.3-0.7-1.1-1.4l1.8-6.6
	c2.2-6,5.3-10.6,9.3-13.8c5.7-4.5,14-6.8,24.7-6.8h39.6c1.9,0,3.5-1.3,3.8-3.2l2.3-12.8C502.2,17.4,500.3,15.2,497.9,15.2"/>
<path class="st0" d="M710.9,51c-1,5.5-3.3,9.3-6.9,11.5c-3.6,2.2-9.6,3.3-17.8,3.3l-30.2,0l4.6-26.5c0.3-1.8,1.9-3.2,3.8-3.2h27.2
	c8.4,0,14,1.1,16.7,3.3C711.1,41.8,711.9,45.6,710.9,51 M731,23.8c-5.6-5.7-15.5-8.6-29.7-8.6h-57.8c-1.9,0-3.5,1.4-3.8,3.2
	l-20,110.1c-0.5,2.4,1.4,4.6,3.8,4.6h16.9c1.9,0,3.5-1.4,3.8-3.2l7.3-40c0.3-1.8,2-3.2,3.8-3.2h23.3c1.6,0,3,1,3.6,2.5l15.7,41.4
	c0.6,1.5,2,2.5,3.6,2.5h19.4c2.8,0,4.6-2.8,3.6-5.4l-16.5-39.8c-0.9-2.1,0.3-4.5,2.4-5.2c6.1-2,11.3-5.3,15.6-10
	c5.1-5.7,8.5-13.1,10.1-22.1C738.3,38.5,736.6,29.5,731,23.8"/>
<path class="st0" d="M1166,51c-1,5.5-3.3,9.3-6.9,11.5c-3.6,2.2-9.5,3.3-17.7,3.3h-28.2c-1,0-1.8-0.9-1.6-2l4.4-24.5
	c0.3-1.8,1.9-3.2,3.8-3.2h27c8.3,0,13.9,1.1,16.6,3.3C1166.1,41.8,1167,45.6,1166,51 M1186,23.8c-5.6-5.7-15.4-8.6-29.6-8.6h-57.5
	c-1.9,0-3.5,1.4-3.8,3.2l-19.9,110.1c-0.5,2.4,1.4,4.6,3.8,4.6h16.8c1.9,0,3.5-1.4,3.8-3.2l7.2-40c0.3-1.8,2-3.2,3.8-3.2h23.2
	c1.6,0,3,1,3.6,2.5l15.6,41.4c0.6,1.5,2,2.5,3.6,2.5h19.3c2.8,0,4.6-2.8,3.6-5.4l-16.5-39.8c-0.9-2.1,0.3-4.5,2.4-5.2
	c6.1-2,11.3-5.3,15.5-10c5.1-5.7,8.5-13.1,10.1-22.1C1193.3,38.5,1191.6,29.5,1186,23.8"/>
<path class="st0" d="M848.4,15.4h-94.1c-1.9,0-3.5,1.3-3.8,3.2l-2.3,12.8c-0.5,2.4,1.4,4.6,3.8,4.6h33.4l-16.8,92.6
	c-0.4,2.4,1.4,4.6,3.8,4.6h17.8c1.9,0,3.5-1.4,3.8-3.2l16.8-94h35.3c1.9,0,3.5-1.4,3.8-3.2l2.3-12.8
	C852.7,17.5,850.9,15.4,848.4,15.4"/>
<path class="st0" d="M258.2,15.2h29.8c1.9,0,3.5,1.4,3.8,3.3l11.4,75.3c0.6,3.7,5.6,4.5,7.3,1.2l39.9-77.7c0.7-1.3,2-2.1,3.4-2.1
	h29.2c2.4,0,4.2,2.2,3.8,4.6l-20,110.1c-0.3,1.8-1.9,3.2-3.8,3.2h-16.3c-2.5,0-4.3-2.2-3.8-4.6l15.5-76.1c0.4-1.8-2.1-2.6-2.9-1
	L314.9,131c-0.7,1.3-2,2.1-3.5,2.1h-20.6c-1.9,0-3.5-1.4-3.8-3.3l-12.3-79.6c-0.3-1.8-2.8-1.8-3.1,0l-12.3,79.6
	c-0.3,1.9-1.9,3.3-3.8,3.3h-17.3c-2.4,0-4.2-2.2-3.8-4.6l20-110.1C254.7,16.5,256.3,15.2,258.2,15.2"/>
<path class="st0" d="M1026.6,84h-30.5c-1.1,0-1.9-1.3-1.3-2.3l3.2-5.8l18.9-33.7c0.7-1.2,2.6-1,2.9,0.5l8.4,39.5
	C1028.4,83.1,1027.6,84,1026.6,84 M1065,128.3l-27-110.1c-0.4-1.7-2-3-3.7-3h-21.1c-1.4,0-2.6,0.7-3.3,1.9l-56.1,92.8h-44
	c-12,0-19.9-3-23.7-9c-3.8-6-4.4-16.3-1.7-30.9c3-16.8,7.8-28.9,14.2-36.3c6.4-7.4,15.5-11,27-11h43.2c1.6,0,3-1.2,3.3-2.7l2.9-16
	c0.4-2-1.2-3.9-3.3-3.9h-42.5c-21.4,0-38.3,5.6-50.5,16.8c-12.2,11.2-20.5,28.6-24.7,52.1c-2.2,12.1-2.4,22.6-0.6,31.3
	c1.8,8.7,5.6,15.8,11.5,21.2c4.5,4.2,9.6,7.2,15.2,9c5.7,1.8,13.7,2.7,24.1,2.7h59.6c1.4,0,2.7-0.8,3.4-2l13.4-24.1
	c0.7-1.2,2-2,3.4-2h45.8c1.8,0,3.4,1.3,3.8,3.1l4.5,21.9c0.4,1.8,2,3.1,3.8,3.1h19.5C1063.7,133.1,1065.6,130.7,1065,128.3"/>
</svg>
