<?xml version="1.0" encoding="utf-8"?>
<!-- Generator: Adobe Illustrator 22.1.0, SVG Export Plug-In . SVG Version: 6.00 Build 0)  -->
<svg version="1.1" id="Layer_1" xmlns="http://www.w3.org/2000/svg" xmlns:xlink="http://www.w3.org/1999/xlink" x="0px" y="0px"
	 viewBox="0 0 10.5 48.3" style="enable-background:new 0 0 10.5 48.3;" xml:space="preserve">
<path d="M5.5,11.8H5.2c-2.8,0-5-2.3-5-5v0c0-2.8,2.3-5,5-5h0.3c2.8,0,5,2.3,5,5v0C10.5,9.6,8.2,11.8,5.5,11.8z"/>
<path d="M5.5,29.2H5.2c-2.8,0-5-2.3-5-5v0c0-2.8,2.3-5,5-5h0.3c2.8,0,5,2.3,5,5v0C10.5,26.9,8.2,29.2,5.5,29.2z"/>
<path d="M5.5,46.5H5.2c-2.8,0-5-2.3-5-5v0c0-2.8,2.3-5,5-5h0.3c2.8,0,5,2.3,5,5v0C10.5,44.2,8.2,46.5,5.5,46.5z"/>
<g>
	<g>
		<g>
			<path d="M-70.2,18.4c0,0.7-0.1,1.5-0.2,2.2c0-0.2,0.1-0.4,0.1-0.6c-0.2,1.4-0.6,2.7-1.1,4c0.1-0.2,0.2-0.4,0.2-0.6
				c-0.4,0.9-0.9,1.8-1.4,2.7c-0.2,0.2-0.3,0.5-0.5,0.7c-0.1,0.1-0.4,0.5,0.1-0.2c-0.1,0.1-0.2,0.2-0.3,0.3c-0.3,0.4-0.7,0.8-1,1.1
				c-0.4,0.4-0.7,0.7-1.1,1c-0.1,0.1-0.2,0.3-0.3,0.3c0.1,0,0.5-0.4,0.2-0.1c-0.2,0.2-0.4,0.3-0.6,0.5c-0.9,0.6-1.8,1.1-2.7,1.5
				c0.2-0.1,0.4-0.2,0.6-0.2c-1.3,0.5-2.6,0.9-4,1.1c0.2,0,0.4-0.1,0.6-0.1c-1.4,0.2-2.8,0.2-4.2,0c0.2,0,0.4,0.1,0.6,0.1
				c-1.4-0.2-2.7-0.5-4-1.1c0.2,0.1,0.4,0.2,0.6,0.2c-0.9-0.4-1.8-0.9-2.7-1.4c-0.2-0.2-0.5-0.3-0.7-0.5c-0.1-0.1-0.4-0.4,0.2,0.1
				c-0.1-0.1-0.2-0.2-0.3-0.3c-0.4-0.3-0.8-0.7-1.1-1c-0.4-0.4-0.7-0.7-1-1.1c-0.1-0.1-0.2-0.2-0.3-0.3c0,0.1,0.4,0.5,0.1,0.2
				c-0.2-0.2-0.3-0.4-0.5-0.6c-0.6-0.9-1.1-1.8-1.5-2.7c0.1,0.2,0.2,0.4,0.2,0.6c-0.5-1.3-0.9-2.6-1.1-4c0,0.2,0.1,0.4,0.1,0.6
				c-0.2-1.5-0.2-3,0-4.4c0,0.2-0.1,0.4-0.1,0.6c0.2-1.4,0.6-2.7,1.1-4c-0.1,0.2-0.2,0.4-0.2,0.6c0.4-0.9,0.9-1.8,1.4-2.7
				c0.2-0.2,0.3-0.5,0.5-0.7c0.1-0.1,0.4-0.5-0.1,0.2c0.1-0.1,0.2-0.2,0.3-0.3c0.3-0.4,0.7-0.8,1-1.1c0.4-0.4,0.7-0.7,1.1-1
				c0.1-0.1,0.2-0.3,0.3-0.3c-0.1,0-0.5,0.4-0.2,0.1c0.2-0.2,0.4-0.3,0.6-0.5c0.9-0.6,1.8-1.1,2.7-1.5c-0.2,0.1-0.4,0.2-0.6,0.2
				c1.3-0.5,2.6-0.9,4-1.1c-0.2,0-0.4,0.1-0.6,0.1c1.4-0.2,2.8-0.2,4.2,0c-0.2,0-0.4-0.1-0.6-0.1c1.4,0.2,2.7,0.5,4,1.1
				c-0.2-0.1-0.4-0.2-0.6-0.2c0.9,0.4,1.8,0.9,2.7,1.4c0.2,0.2,0.5,0.3,0.7,0.5c0.1,0.1,0.4,0.4-0.2-0.1c0.1,0.1,0.2,0.2,0.3,0.3
				c0.4,0.3,0.8,0.7,1.1,1c0.4,0.4,0.7,0.7,1,1.1c0.1,0.1,0.2,0.2,0.3,0.3c0-0.1-0.4-0.5-0.1-0.2c0.2,0.2,0.3,0.4,0.5,0.6
				c0.6,0.9,1.1,1.8,1.5,2.7c-0.1-0.2-0.2-0.4-0.2-0.6c0.5,1.3,0.9,2.6,1.1,4c0-0.2-0.1-0.4-0.1-0.6C-70.2,16.9-70.2,17.7-70.2,18.4
				c0,1.2,1.1,2.4,2.4,2.4c1.3-0.1,2.4-1,2.4-2.4c0-3.7-1.1-7.5-3.3-10.6c-2.2-3.1-5.2-5.5-8.8-6.8c-7-2.6-15.4-0.3-20.1,5.5
				c-2.5,3.1-4,6.7-4.3,10.6c-0.3,3.7,0.7,7.5,2.6,10.7c1.9,3.1,4.6,5.7,7.9,7.2c3.6,1.7,7.6,2.1,11.5,1.3c7.2-1.5,13.1-7.7,14.2-15
				c0.2-1,0.3-2,0.3-3.1c0-1.2-1.1-2.4-2.4-2.4C-69.1,16.1-70.2,17.1-70.2,18.4z"/>
		</g>
	</g>
	<g>
		<rect x="-64" y="26" transform="matrix(0.6783 -0.7348 0.7348 0.6783 -47.7153 -34.1505)" width="2.2" height="22.7"/>
		<g>
			<path d="M-72.1,30.6c1.9,1.7,3.8,3.5,5.7,5.2c3,2.8,6,5.5,9,8.3c0.7,0.6,1.4,1.3,2.1,1.9c0-1.1,0-2.2,0-3.4
				c-0.5,0.5-1,1.1-1.5,1.6c1.1,0,2.2,0,3.4,0c-1.9-1.7-3.8-3.5-5.7-5.2c-3-2.8-6-5.5-9-8.3c-0.7-0.6-1.4-1.3-2.1-1.9
				c0,1.1,0,2.2,0,3.4c0.5-0.5,1-1.1,1.5-1.6c0.8-0.9,1-2.5,0-3.4c-0.9-0.8-2.5-1-3.4,0c-0.5,0.5-1,1.1-1.5,1.6
				c-0.9,0.9-1,2.5,0,3.4c1.9,1.7,3.8,3.5,5.7,5.2c3,2.8,6,5.5,9,8.3c0.7,0.6,1.4,1.3,2.1,1.9c0.9,0.9,2.5,1,3.4,0
				c0.5-0.5,1-1.1,1.5-1.6c0.9-0.9,1-2.5,0-3.4c-1.9-1.7-3.8-3.5-5.7-5.2c-3-2.8-6-5.5-9-8.3c-0.7-0.6-1.4-1.3-2.1-1.9
				c-0.9-0.8-2.5-1-3.4,0C-73,28.1-73.1,29.7-72.1,30.6z"/>
		</g>
	</g>
</g>
</svg>
