<svg version="1.1" xmlns="http://www.w3.org/2000/svg" x="0px" y="0px" viewBox="0 0 100 125" style="enable-background:new 0 0 100 125;"><g transform="translate(0,-952.36218)"><path fill="#FFFFFF" d="M34.3,975.4c-0.1,0-0.3,0-0.4,0.1c-4.5,1.4-7.6,3.8-9.3,6.9s-1.9,6.8-1.2,10.6c1.5,7.5,6.7,15.6,13.2,22.3 c6.6,6.7,14.5,12.1,22,13.7c3.8,0.8,7.5,0.6,10.8-1.1c3.2-1.7,5.8-4.9,7.4-9.4c0.3-0.9, 0-1.8-0.8-2.3l-14.2-8.9l0,0 c-0.1,0-0.1-0.1-0.2-0.1c-0.2-0.1-0.4-0.2-0.7-0.3c0,0,0,0-0.1,0c-0.1,0-0.1,0-0.2,0c0,0,0,0,0,0c-0.3,0-0.7,0-1,0.2 c-0.1,0.1-0.2,0.1-0.3,0.2c-0.1,0-0.1,0.1-0.2,0.1c0,0,0,0.1-0.1,0.1c-0.1,0.1-0.2,0.1-0.2,0.2l-3.1,3.2c-5.7-2.9-10-7.6-13.9-14.1 l2.9-2.8c0.1,0,0.1-0.1,0.2-0.2c0,0,0.1-0.1,0.1-0.1c0,0,0,0,0,0c0,0,0.1-0.1,0.1-0.1c0,0,0,0,0,0c0,0,0-0.1,0.1-0.1 c0,0,0,0,0.1-0.1c0-0.1,0-0.1,0.1-0.2c0,0,0,0,0,0c0,0,0,0,0-0.1c0,0,0-0.1,0.1-0.1c0-0.1,0-0.1,0-0.2c0,0,0,0,0,0 c0-0.1,0-0.1,0-0.2c0,0,0,0,0,0c0-0.1,0-0.1,0-0.2c0,0,0,0,0,0c0-0.1,0-0.1,0-0.2c0,0,0,0,0-0.1c0-0.1,0-0.1,0-0.2c0,0,0,0,0,0 c0-0.1-0.1-0.2-0.1-0.3c0,0,0,0,0,0c0-0.1-0.1-0.2-0.1-0.2l0-0.1c0,0,0,0,0,0l-8.9-14.6c-0.4-0.6-1-0.9-1.7-1 C34.5,975.4,34.4,975.4,34.3,975.4L34.3,975.4z M33.6,979.8l7.3,12l-3,3c-0.6,0.6-0.8,1.6-0.3,2.4c4.6,8,10.1,14.2,17.8,17.6 c0.8,0.3,1.6,0.2,2.2-0.4l3.2-3.2l11.7,7.3c-1.3,2.9-3,4.7-4.9,5.7c-2.2,1.2-5,1.4-8.1,0.8c-6.3-1.3-13.8-6.2-20-12.5 s-10.9-14-12.2-20.2c-0.6-3.1-0.3-5.8,0.8-7.9C29.1,982.5,30.8,980.9,33.6,979.8L33.6,979.8z"/><path fill="#FFFFFF" d="M50,958.4c-24.3,0-44,19.7-44,44c0,8.8,2.6,17.1,7.2,24.1l-4.9,16.4c-0.3,1.1,0.3,2.2,1.3,2.5c0.4,0.1,0.8,0.1,1.2,0 l16.1-5.5c6.7,4.1,14.6,6.5,23.1,6.5c24.3,0,44-19.7,44-44C94,978.1,74.3,958.4,50,958.4L50,958.4z M50,962.4c22.1,0,40,17.9,40,40 c0,22.1-17.9,40-40,40c-8,0-15.5-2.4-21.7-6.4c-0.5-0.3-1.2-0.4-1.7-0.2l-13.3,4.6l4.1-13.6c0.2-0.6,0.1-1.2-0.3-1.7 c-4.5-6.6-7.1-14.4-7.1-22.7C10,980.2,27.9,962.4,50,962.4L50,962.4z"/></g></svg>