<?xml version="1.0" encoding="utf-8"?>
<!-- Generator: Adobe Illustrator 22.1.0, SVG Export Plug-In . SVG Version: 6.00 Build 0)  -->
<svg version="1.1" id="Layer_1" xmlns="http://www.w3.org/2000/svg" xmlns:xlink="http://www.w3.org/1999/xlink" x="0px" y="0px"
	 viewBox="0 0 44.4 44.4" style="enable-background:new 0 0 44.4 44.4;" xml:space="preserve">
<style type="text/css">
	.st0{fill:none;stroke:#000000;stroke-width:2;stroke-linecap:round;stroke-miterlimit:10;}
	.st1{fill:none;stroke:#000000;stroke-linecap:round;stroke-miterlimit:10;}
	.st2{fill:none;stroke:#000000;stroke-width:2;stroke-miterlimit:10;}
</style>
<g>
	<path d="M-229.4,26.8h2.8v13.9c0,1.6,1.3,2.9,2.9,2.9h5.5c1.6,0,2.9-1.3,2.9-2.9v0V26.8h2.8c1.2-0.1,2.3-0.9,2.8-2.1l1.9-3.7
		c0-0.1,0-0.1,0-0.2c0.2-0.8,0.1-1.7-0.4-2.4c-0.6-0.7-1.4-1.1-2.3-1.1h-4.7v-5.4h4.7c1.6,0,2.9-1.3,2.9-2.9V4.4
		c0-1.6-1.3-2.9-2.9-2.9h-5.7c-6.9,0-10.3,4.3-10.3,13.1v2.7h-2.8c-1.6,0-2.9,1.3-2.9,2.9v3.7C-232.3,25.5-231,26.8-229.4,26.8z
		 M-230.3,20.2c0-0.5,0.4-0.8,0.9-0.8h3.8c0.6,0,1-0.5,1-1v-3.7c0-7.8,2.5-11.1,8.2-11.1h5.7c0.5,0,0.9,0.4,0.9,0.8V9
		c0,0.5-0.4,0.8-0.9,0.8h-5.6c-0.6,0-1,0.5-1,1v7.5c0,0.6,0.5,1,1,1h5.7c0.3,0,0.5,0.1,0.7,0.3c0.1,0.2,0.2,0.4,0.2,0.6l-1.8,3.6
		c-0.3,0.6-0.8,0.9-0.9,0.9h-3.8c-0.6,0-1,0.5-1,1v14.9c0,0.5-0.4,0.9-0.9,0.8l0,0h-5.5c-0.5,0-0.9-0.4-0.9-0.8v-15c0-0.6-0.5-1-1-1
		h-3.8c-0.5,0-0.9-0.4-0.9-0.8V20.2z"/>
	<g>
		<circle class="st0" cx="-103.9" cy="22.2" r="9.6"/>
		<circle class="st1" cx="-90.5" cy="12.3" r="1.9"/>
		<path class="st0" d="M-115,1.5h22.2c5.3,0,9.6,4.3,9.6,9.6v22.2c0,5.3-4.3,9.6-9.6,9.6H-115c-5.3,0-9.6-4.3-9.6-9.6V11.1
			C-124.6,5.8-120.3,1.5-115,1.5z"/>
	</g>
	<g>
		<path d="M14.3,8.6c-0.1,0-0.1,0-0.2,0c-2.2,0.7-3.8,1.9-4.7,3.5c-0.9,1.6-1,3.5-0.6,5.3c0.7,3.8,3.4,7.9,6.7,11.3
			c3.3,3.4,7.3,6.1,11.1,6.9c1.9,0.4,3.8,0.3,5.4-0.6c1.6-0.9,2.9-2.5,3.8-4.7c0.2-0.4,0-0.9-0.4-1.2l-7.2-4.5l0,0
			c0,0-0.1,0-0.1-0.1c-0.1-0.1-0.2-0.1-0.3-0.1c0,0,0,0,0,0c0,0-0.1,0-0.1,0c0,0,0,0,0,0c-0.2,0-0.3,0-0.5,0.1
			c-0.1,0-0.1,0.1-0.2,0.1c0,0-0.1,0-0.1,0.1c0,0,0,0,0,0c0,0-0.1,0.1-0.1,0.1l-1.6,1.6c-2.9-1.4-5.1-3.9-7-7.1l1.5-1.4
			c0,0,0.1-0.1,0.1-0.1c0,0,0,0,0.1-0.1v0c0,0,0,0,0.1-0.1v0c0,0,0,0,0,0c0,0,0,0,0,0c0,0,0-0.1,0-0.1v0c0,0,0,0,0,0c0,0,0,0,0-0.1
			c0,0,0-0.1,0-0.1v0c0,0,0-0.1,0-0.1l0,0c0,0,0-0.1,0-0.1l0,0c0,0,0-0.1,0-0.1l0,0c0,0,0-0.1,0-0.1v0c0-0.1,0-0.1-0.1-0.2v0
			c0,0,0-0.1-0.1-0.1l0,0c0,0,0,0,0,0l-4.5-7.4C15.1,8.8,14.7,8.6,14.3,8.6C14.4,8.6,14.3,8.6,14.3,8.6L14.3,8.6z M13.9,10.8
			l3.7,6.1l-1.5,1.5c-0.3,0.3-0.4,0.8-0.2,1.2c2.3,4,5.1,7.2,9,8.9c0.4,0.2,0.8,0.1,1.1-0.2l1.6-1.6l5.9,3.7
			c-0.7,1.5-1.5,2.4-2.5,2.9C30,33.9,28.6,34,27,33.6c-3.2-0.7-7-3.1-10.1-6.3s-5.5-7.1-6.1-10.2c-0.3-1.6-0.2-2.9,0.4-4
			C11.7,12.2,12.5,11.4,13.9,10.8L13.9,10.8z"/>
		<path d="M22.2,0C10,0,0,10,0,22.2c0,4.5,1.3,8.6,3.6,12.2l-2.5,8.3C1,43.2,1.3,43.8,1.8,44C2,44,2.3,44,2.5,43.9l8.1-2.8
			c3.4,2.1,7.4,3.3,11.6,3.3c12.3,0,22.2-10,22.2-22.2C44.4,10,34.5,0,22.2,0L22.2,0z M22.2,2c11.2,0,20.2,9,20.2,20.2
			c0,11.2-9,20.2-20.2,20.2c-4,0-7.8-1.2-11-3.2C11,39,10.7,39,10.4,39.1l-6.7,2.3l2.1-6.9c0.1-0.3,0-0.6-0.1-0.9
			C3.3,30.3,2,26.4,2,22.2C2,11,11.1,2,22.2,2L22.2,2z"/>
	</g>
	<g transform="translate(144 0)">
		<path class="st2" d="M39.1,10c0-4.6-3.7-8.3-8.3-8.3H-8.1c-4.6,0-8.3,3.7-8.3,8.3v22.3c0,4.6,3.7,8.3,8.3,8.3h38.9
			c4.6,0,8.3-3.7,8.3-8.3V10z M5.8,30.5V9.6l15.9,10.5L5.8,30.5z"/>
	</g>
</g>
</svg>
